<?xml version="1.0" standalone="no"?>
<!DOCTYPE svg PUBLIC "-//W3C//DTD SVG 20010904//EN"
 "http://www.w3.org/TR/2001/REC-SVG-20010904/DTD/svg10.dtd">
<svg version="1.0" xmlns="http://www.w3.org/2000/svg"
 width="460.000000pt" height="460.000000pt" viewBox="0 0 460.000000 460.000000"
 preserveAspectRatio="xMidYMid meet">

<g transform="translate(0.000000,460.000000) scale(0.100000,-0.100000)"
fill="#000000" stroke="none">
<path d="M1510 4135 l0 -35 -75 0 -75 0 0 -35 0 -35 -70 0 -70 0 0 -40 0 -40
-70 0 -70 0 0 -35 c0 -34 -1 -35 -40 -35 -39 0 -40 -1 -40 -35 0 -33 -2 -35
-35 -35 -33 0 -35 -2 -35 -35 0 -33 -2 -35 -35 -35 -33 0 -35 -2 -35 -35 0
-33 -2 -35 -35 -35 l-35 0 0 -75 0 -75 -35 0 -35 0 0 -360 0 -360 -35 0 -35 0
0 -105 0 -105 35 0 c34 0 35 -1 35 -40 0 -39 1 -40 35 -40 l35 0 0 -70 0 -70
35 0 35 0 0 -70 0 -70 -35 0 c-33 0 -35 -2 -35 -35 0 -33 -2 -35 -35 -35 -34
0 -35 -1 -35 -40 0 -39 1 -40 35 -40 33 0 35 -2 35 -35 l0 -35 105 0 104 0 3
-142 3 -143 38 -3 c35 -3 37 -5 37 -38 0 -32 2 -34 35 -34 33 0 35 -2 35 -35
l0 -35 180 0 180 0 0 -35 0 -35 -75 0 -75 0 0 -35 c0 -33 -2 -35 -35 -35 -33
0 -35 -2 -35 -35 0 -33 -2 -35 -35 -35 -33 0 -35 -2 -35 -35 0 -33 -2 -35 -35
-35 l-35 0 0 -75 0 -75 -35 0 -35 0 0 -104 0 -105 -37 -3 -38 -3 -3 -107 -3
-108 41 0 40 0 0 -110 0 -110 -40 0 -40 0 0 -49 0 -48 63 -40 c92 -59 87 -57
87 -29 0 23 -4 26 -35 26 l-35 0 0 70 0 70 35 0 35 0 0 110 0 110 -35 0 -35 0
0 105 0 105 35 0 35 0 0 110 0 110 35 0 35 0 0 70 0 70 40 0 c39 0 40 1 40 35
l0 35 140 0 140 0 0 40 0 40 110 0 110 0 0 -180 0 -180 35 0 35 0 0 -110 0
-110 70 0 70 0 0 145 0 145 -35 0 -35 0 0 145 0 145 110 0 110 0 0 35 c0 33
-2 35 -35 35 -33 0 -35 2 -35 35 l0 35 430 0 430 0 0 -35 c0 -34 -1 -35 -40
-35 -39 0 -40 -1 -40 -35 l0 -35 75 0 75 0 0 -290 0 -290 35 0 c33 0 35 -2 35
-35 0 -33 -2 -35 -35 -35 -33 0 -35 -2 -35 -35 0 -33 -2 -35 -35 -35 -33 0
-35 2 -35 35 l0 35 -430 0 -430 0 0 -35 c0 -34 -1 -35 -40 -35 l-40 0 0 -290
0 -290 -35 0 c-33 0 -35 2 -35 35 0 33 -2 35 -35 35 l-35 0 0 220 0 220 35 0
35 0 0 70 0 70 -35 0 c-33 0 -35 -2 -35 -35 l0 -35 -75 0 -75 0 0 35 c0 33 -2
35 -35 35 l-35 0 0 -215 0 -215 -35 0 -35 0 0 -70 0 -70 -36 0 -35 0 3 -42 3
-43 110 -33 c270 -81 620 -121 833 -96 l52 7 0 98 0 99 -30 0 c-28 0 -30 2
-30 40 l0 40 105 0 105 0 0 -131 0 -131 43 7 c166 27 448 120 605 199 l72 36
0 45 c0 45 0 45 -35 45 l-35 0 0 163 c0 89 -3 186 -6 215 l-7 52 -68 0 -69 0
0 290 0 290 49 0 c26 0 76 -3 110 -6 l61 -7 0 -33 c0 -32 2 -34 35 -34 l35 0
0 -70 0 -70 35 0 c33 0 35 -2 35 -35 0 -33 2 -35 35 -35 l35 0 0 -110 0 -110
-35 0 -35 0 0 -105 0 -105 35 0 35 0 0 -75 0 -75 -35 0 -35 0 0 -75 0 -75 40
26 c38 25 40 30 40 75 l0 49 35 0 35 0 0 75 0 75 -35 0 -35 0 0 105 0 105 35
0 35 0 0 110 0 110 -35 0 c-33 0 -35 2 -35 35 0 34 -1 35 -40 35 l-40 0 0 75
0 75 -35 0 c-33 0 -35 2 -35 35 0 33 -2 35 -35 35 -33 0 -35 2 -35 35 0 33 -2
35 -35 35 -33 0 -35 2 -35 35 l0 35 -75 0 -75 0 0 35 0 35 75 0 75 0 0 35 c0
33 2 35 35 35 33 0 35 2 35 35 0 33 2 35 35 35 34 0 35 1 35 40 0 39 1 40 35
40 l35 0 0 215 0 215 40 0 c39 0 40 1 40 35 0 33 2 35 35 35 33 0 35 2 35 35
0 33 2 35 35 35 l35 0 0 110 0 110 70 0 70 0 0 35 c0 33 2 35 35 35 33 0 35 2
35 35 0 33 -2 35 -35 35 -33 0 -35 2 -35 35 0 33 -2 35 -35 35 -33 0 -35 2
-35 35 0 33 2 35 35 35 l35 0 0 75 0 75 35 0 35 0 0 180 0 180 -35 0 c-33 0
-35 2 -35 35 0 33 -2 35 -35 35 -33 0 -35 2 -35 35 0 33 -2 35 -35 35 -34 0
-35 1 -35 40 0 39 -1 40 -34 40 -32 0 -35 3 -38 33 -3 28 -7 32 -35 35 -30 3
-33 6 -33 38 0 33 -1 34 -40 34 -39 0 -40 1 -40 35 0 33 -2 35 -35 35 -33 0
-35 2 -35 35 l0 35 -70 0 -70 0 0 35 0 35 -110 0 -110 0 0 40 0 40 -180 0
-180 0 0 35 0 35 -140 0 -140 0 0 35 0 35 -470 0 -470 0 0 -35z m930 -75 l0
-40 145 0 145 0 0 -35 0 -35 180 0 180 0 0 -35 0 -35 105 0 105 0 0 -35 0 -35
-250 0 -250 0 0 35 0 35 -70 0 -70 0 0 35 0 35 -145 0 -145 0 0 40 0 40 -232
0 c-128 0 -257 -3 -285 -6 -52 -7 -53 -7 -53 -40 0 -32 -2 -34 -35 -34 -33 0
-35 -2 -35 -35 0 -34 -1 -35 -40 -35 -39 0 -40 -1 -40 -35 l0 -35 -215 0 -215
0 0 -35 0 -35 -70 0 -70 0 0 -35 0 -35 -70 0 -70 0 0 35 c0 33 2 35 35 35 33
0 35 2 35 35 0 33 2 35 35 35 33 0 35 2 35 35 l0 35 70 0 70 0 0 35 0 35 75 0
75 0 0 35 0 35 70 0 70 0 0 40 0 40 465 0 465 0 0 -40z m-70 -215 c0 -33 2
-35 35 -35 33 0 35 -2 35 -35 l0 -35 325 0 325 0 0 -35 0 -35 -430 0 -430 0 0
35 c0 34 -1 35 -40 35 l-40 0 0 -70 0 -70 -105 0 -105 0 0 35 c0 33 -2 35 -35
35 -34 0 -35 -1 -35 -40 0 -39 1 -40 35 -40 33 0 35 -2 35 -35 l0 -35 -70 0
-70 0 0 110 0 110 35 0 c33 0 35 2 35 35 0 33 2 35 35 35 33 0 35 2 35 35 l0
35 215 0 215 0 0 -35z m1080 -70 c0 -33 2 -35 35 -35 34 0 35 -1 35 -40 0 -39
1 -40 35 -40 33 0 35 -2 35 -35 0 -33 2 -35 35 -35 33 0 35 -2 35 -35 0 -34 1
-35 40 -35 39 0 40 -1 40 -35 0 -33 2 -35 35 -35 33 0 35 -2 35 -35 0 -33 2
-35 35 -35 33 0 35 -2 35 -35 0 -33 -2 -35 -35 -35 -33 0 -35 2 -35 35 0 33
-2 35 -35 35 -33 0 -35 2 -35 35 l0 35 -70 0 -70 0 0 35 0 35 -75 0 -75 0 0
110 0 110 -35 0 c-33 0 -35 2 -35 35 0 33 2 35 35 35 33 0 35 -2 35 -35z
m-2520 -145 l0 -30 110 0 110 0 0 -40 c0 -39 1 -40 35 -40 l35 0 0 -105 0
-105 -35 0 c-33 0 -35 -2 -35 -34 l0 -34 -72 -7 c-40 -4 -89 -5 -108 -3 -31 3
-35 7 -38 35 -3 31 -4 31 -73 38 l-69 7 0 104 0 104 70 0 70 0 0 40 c0 39 -1
40 -35 40 -32 0 -35 2 -35 30 0 28 3 30 35 30 32 0 35 -2 35 -30z m2450 0 l0
-30 -110 0 -110 0 0 30 0 30 110 0 110 0 0 -30z m-1660 -145 c0 -33 -2 -35
-35 -35 -33 0 -35 2 -35 35 0 33 2 35 35 35 33 0 35 -2 35 -35z m-140 -70 c0
-33 -2 -35 -35 -35 -33 0 -35 2 -35 35 0 33 2 35 35 35 33 0 35 -2 35 -35z
m-140 -70 c0 -33 -2 -35 -35 -35 -33 0 -35 2 -35 35 0 33 2 35 35 35 33 0 35
-2 35 -35z m-150 -75 c0 -28 -3 -30 -35 -30 -32 0 -35 2 -35 30 0 28 3 30 35
30 32 0 35 -2 35 -30z m-70 -75 c0 -33 -2 -35 -35 -35 -33 0 -35 -2 -35 -35 0
-33 -2 -35 -35 -35 -33 0 -35 -2 -35 -35 0 -33 -2 -35 -35 -35 -33 0 -35 2
-35 35 0 33 2 35 35 35 33 0 35 2 35 35 0 33 2 35 35 35 33 0 35 2 35 35 0 33
2 35 35 35 33 0 35 -2 35 -35z m1370 -145 l0 -180 35 0 c33 0 35 -2 35 -35 l0
-35 70 0 70 0 0 -35 c0 -34 1 -35 40 -35 39 0 40 1 40 35 0 33 2 35 35 35 l35
0 0 -70 0 -70 35 0 c33 0 35 -2 35 -35 l0 -35 70 0 70 0 0 35 c0 33 2 35 35
35 l35 0 0 105 0 105 35 0 c33 0 35 -2 35 -35 0 -34 1 -35 40 -35 39 0 40 -1
40 -35 0 -33 2 -35 35 -35 l35 0 0 -465 0 -465 -35 0 c-33 0 -35 -2 -35 -34 0
-33 -2 -35 -37 -38 -36 -3 -38 -5 -41 -40 l-3 -38 -1075 0 -1074 0 0 40 c0 39
-1 40 -35 40 l-35 0 0 140 0 140 35 0 c34 0 35 1 35 40 l0 40 145 0 145 0 0
36 0 37 143 -4 142 -4 3 108 3 107 34 0 35 0 0 180 0 180 35 0 c33 0 35 2 35
35 0 33 2 35 35 35 l35 0 0 -70 0 -70 35 0 c33 0 35 -2 35 -35 l0 -35 70 0 70
0 0 35 c0 34 1 35 40 35 l40 0 0 105 0 105 35 0 c33 0 35 -2 35 -35 0 -33 2
-35 35 -35 33 0 35 -2 35 -35 0 -34 1 -35 40 -35 l40 0 0 75 0 75 -40 0 c-39
0 -40 1 -40 35 0 33 -2 35 -35 35 -33 0 -35 2 -35 35 l0 35 75 0 75 0 0 35 c0
33 2 35 35 35 l35 0 0 70 0 70 35 0 35 0 0 -180z m-1730 5 l0 -35 70 0 70 0 0
-35 0 -35 -70 0 -70 0 0 -35 c0 -33 -2 -35 -35 -35 l-35 0 0 105 0 105 35 0
c33 0 35 -2 35 -35z m1300 -220 c0 -33 -2 -35 -35 -35 -33 0 -35 -2 -35 -35 0
-34 -1 -35 -40 -35 l-40 0 0 70 0 70 75 0 75 0 0 -35z m1000 0 c0 -33 -2 -35
-35 -35 -33 0 -35 -2 -35 -35 0 -33 -2 -35 -35 -35 l-35 0 0 70 0 70 70 0 70
0 0 -35z m-210 -2295 l0 -110 -40 0 c-39 0 -40 1 -40 35 0 33 -2 35 -35 35
-33 0 -35 -2 -35 -35 l0 -35 -70 0 -70 0 0 35 0 35 -145 0 -145 0 0 -35 0 -35
75 0 75 0 0 -35 c0 -34 -1 -35 -40 -35 -39 0 -40 -1 -40 -35 0 -33 -2 -35 -35
-35 l-35 0 0 70 0 70 -35 0 c-33 0 -35 2 -35 35 0 33 2 35 35 35 33 0 35 2 35
35 l0 35 -105 0 -105 0 0 -35 c0 -33 -2 -35 -35 -35 l-35 0 0 75 0 75 430 0
430 0 0 -110z m140 -110 l0 -220 -35 0 -35 0 0 220 0 220 35 0 35 0 0 -220z
m-790 -105 c0 -33 -2 -35 -35 -35 -33 0 -35 2 -35 35 0 33 2 35 35 35 33 0 35
-2 35 -35z"/>
<path d="M2730 535 c0 -33 2 -35 35 -35 33 0 35 2 35 35 0 33 -2 35 -35 35
-33 0 -35 -2 -35 -35z"/>
</g>
</svg>
